<svg version="1.0" xmlns="http://www.w3.org/2000/svg" width="1706.667" height="1658.667" viewBox="0 0 1280 1244"><path d="M359.5 194.6c-1.6.2-7.3.9-12.5 1.5-78.5 8.9-152.5 53.4-195 117.2-50.5 75.6-58.1 180.2-20.3 276.2 23.4 59.2 61.5 113.6 122.3 174.6 44 44 76.1 71.3 179 152.1 72.3 56.8 97.3 78 128 108.8 28.5 28.5 47.5 52.7 59.1 75.3 2.4 4.8 4.6 8.7 4.9 8.7.3 0 2-2.9 3.8-6.5 15-30.4 45.8-66.6 90.7-106.6 25.3-22.5 44.1-37.8 113-91.9 90-70.7 120.7-97 164-140.4 46.8-46.9 77.5-86.6 102.3-132.1 41.4-76.1 53.7-162.2 34.2-239.1-11.2-44-32.4-82.2-63.5-114.3-52.3-54-124.5-84.1-201.4-84.1-89.9 0-167.1 41.2-211.6 113-11.2 18.2-23.4 45.7-28.8 65.1-2.1 7.4-3.7 10.1-3.7 6.1 0-4.5-10.9-33.4-18.4-48.7C568.9 254.6 504.5 208.7 418 196c-7.5-1.1-52.8-2.2-58.5-1.4z"/></svg>